<svg xmlns="http://www.w3.org/2000/svg" xmlns:xlink="http://www.w3.org/1999/xlink" version="1.1">
  <symbol id="vk-logo" viewbox="0 0 23 13">
    <path d="M.07 2c0-.63.42-.96 1.27-1.01L4.6 1c.22 0 .37.09.44.27.33.91.7 1.7 1.13 2.37.41.66.95 1.43 1.63 2.3a.3.3 0 00.28.16c.1 0 .18-.04.24-.13l.07-.2.02-3.17c0-.21-.06-.36-.19-.43A1.9 1.9 0 007.53 2c-.26-.04-.4-.17-.4-.4 0-.05.02-.09.03-.11C7.46.7 8.34.3 9.8.3L11 .29c.56 0 1.02.12 1.38.35.37.23.55.6.55 1.1v4.15c.1.06.2.09.28.09.22 0 .41-.11.57-.33 1.6-1.88 2.48-3.13 2.6-3.77a1.29 1.29 0 01.55-.57c.24-.13.44-.22.62-.27a.5.5 0 01.2-.03h3.39l.21.01c.3 0 .52.12.68.35.06.07.1.15.12.24a1.57 1.57 0 01.06.4v.13c-.1.5-.36 1.03-.78 1.6-.41.57-.94 1.18-1.59 1.84-.64.66-1.04 1.09-1.2 1.3-.13.14-.2.28-.2.4 0 .1.06.2.18.33l3.2 3.36c.17.2.26.41.26.64 0 .28-.13.52-.4.7-.26.18-.57.28-.94.3l-.37.03h-3.33a.8.8 0 00-.08 0 .8.8 0 01-.1.02c-.31 0-.61-.12-.89-.35a182 182 0 01-2.06-2.16 1.1 1.1 0 00-.3-.24 25.65 25.65 0 00-.44 1.63l-.07.31c-.14.43-.45.68-.92.77l-.3.02H9.74a5.92 5.92 0 01-3.62-1.4 14.5 14.5 0 01-3.25-3.59A32.9 32.9 0 01.18 2.52C.11 2.36.07 2.2.07 2zm13.15 4.73c-.3 0-.58-.07-.83-.21-.25-.14-.37-.33-.37-.58v-4.2c0-.25-.07-.42-.22-.52-.15-.1-.4-.16-.77-.16L9.8 1.1c-.63 0-1.1.09-1.43.27.65.26.97.67.97 1.24v3.22c-.03.3-.18.56-.44.76-.26.2-.55.3-.88.3-.43 0-.77-.17-1-.53a18.47 18.47 0 01-2.54-4.1l-.2-.47-2.9-.02c-.2 0-.3.01-.33.03-.02.02-.03.07-.03.16 0 .1.02.22.04.34l.46 1.03a23.46 23.46 0 004 6.25c1.44 1.53 2.85 2.29 4.23 2.29h2.2c.08 0 .15-.02.19-.07a.52.52 0 00.1-.24l.05-.18.42-1.61c.11-.22.22-.37.3-.44.16-.14.35-.2.57-.2.35 0 .71.17 1.08.53l1.86 1.97c.11.16.24.24.37.24h3.6c.45 0 .67-.1.67-.28a.31.31 0 00-.07-.18l-3.17-3.3a1.17 1.17 0 01-.38-.83c0-.3.12-.57.35-.84.2-.25.56-.65 1.11-1.22a28.2 28.2 0 001.43-1.59c.41-.5.68-.94.81-1.34l.07-.24a.24.24 0 01-.02-.12l-.02-.14h-3.44c-.22.07-.4.18-.53.33l-.13.35c-.36.84-1.32 2.14-2.86 3.9-.31.24-.67.36-1.08.36z" fill="currentColor"/>
  </symbol>
  <symbol id="instagram-logo" viewbox="0 0 16 16">
    <path d="M7.98.06c1.34 0 2.43.02 3.27.05a6 6 0 011.92.37 3.99 3.99 0 012.31 2.32 6 6 0 01.38 1.92 91.88 91.88 0 010 6.53 6 6 0 01-.38 1.92 3.99 3.99 0 01-2.3 2.31 6 6 0 01-1.93.38 91.88 91.88 0 01-6.53 0 6 6 0 01-1.92-.38 3.99 3.99 0 01-2.32-2.3 6 6 0 01-.37-1.93 91.73 91.73 0 010-6.53A6 6 0 01.48 2.8 3.99 3.99 0 012.8.48 6 6 0 014.72.11C5.56.08 6.65.06 7.98.06zm0 1.03c-1.38 0-2.51.02-3.39.05-.56.02-1.08.12-1.56.3-.75.31-1.28.84-1.6 1.6-.17.47-.27 1-.29 1.55a98.83 98.83 0 000 6.79c.02.56.12 1.08.3 1.56.31.75.84 1.28 1.6 1.6.47.17 1 .27 1.55.29a98.66 98.66 0 006.79 0 5.01 5.01 0 001.56-.3 2.85 2.85 0 001.6-1.6c.17-.47.27-1 .29-1.55a98.66 98.66 0 000-6.79 5.01 5.01 0 00-.3-1.56 2.85 2.85 0 00-1.6-1.6c-.47-.17-1-.27-1.55-.29-.88-.03-2.01-.05-3.4-.05zm0 10.07c.88 0 1.63-.31 2.25-.93.62-.62.93-1.37.93-2.25 0-.87-.31-1.62-.93-2.24a3.06 3.06 0 00-2.25-.93c-.87 0-1.62.31-2.24.93a3.06 3.06 0 00-.93 2.24c0 .88.31 1.63.93 2.25.62.62 1.37.93 2.24.93zm0-7.24c1.13 0 2.09.4 2.88 1.19.8.8 1.19 1.75 1.19 2.87 0 1.13-.4 2.09-1.2 2.88-.78.8-1.74 1.19-2.87 1.19-1.12 0-2.08-.4-2.87-1.2a3.92 3.92 0 01-1.19-2.87c0-1.12.4-2.08 1.19-2.87.8-.8 1.75-1.19 2.87-1.19zm5.2-.15a.95.95 0 01-.97.94.9.9 0 01-.67-.28.9.9 0 01-.27-.66.95.95 0 01.93-.97c.26 0 .49.1.68.29.2.19.3.42.3.68z" fill="currentColor"/>
  </symbol>
  <symbol id="fb-logo" viewbox="0 0 13 20">
    <path d="M11.5.83H8.75c-1.22 0-2.38.48-3.24 1.32a4.45 4.45 0 00-1.34 3.18v2.7H1.42v3.59h2.75v7.19h3.66v-7.2h2.75l.92-3.59H7.83v-2.7c0-.23.1-.46.27-.63.17-.17.4-.26.65-.26h2.75V.83z" stroke="currentColor" stroke-width="1.1" stroke-linecap="round" stroke-linejoin="round" fill="none"/>
  </symbol>
  <symbol id="html-academy-logo" viewbox="0 0 27 34">
    <path d="M13.64.02L13.5 0 0 1.4v24.61L13.5 34 27 26.01V1.41L13.64 0zm11.6 25L13.5 31.96 1.77 25.02v-10.1l11.68 6.93.02 1.25-8.02-4.75v1.23l8.04 4.8.02 1.3-8.05-4.76v1.22l8.04 4.81 8.12-4.83V16.9l3.62-2.15v10.26zm0-11.57L22 15.33l-1.48.88-7.06-4.19-.01 1.23 6.04 3.57-.06.03-.13.07-.86.5-4.98-2.95-.01 1.22 3.93 2.33-.93.61-.02.01-2.97-1.74-.01 1.23 1.94 1.13-1.98 1.19L1.8 13.58l11.63-6.96 11.8 6.83zm0-1.22L13.43 5.3 1.77 12.22V2.99L13.5 1.76 25.23 3v9.24z" fill="currentColor"/>
  </symbol>
  <symbol id="short-arrow" viewbox="0 0 24 12">
    <path stroke="#000" stroke-width="2" d="M0 6h18"/><path d="M24 6l-6.75 5.2V.8L24 6z" fill="#000"/>
  </symbol>
  <symbol id="long-arrow" viewbox="0 0 32 12">
    <path stroke="#000" stroke-width="2" d="M0 6h26"/><path d="M32 6l-6.75 5.2V.8L32 6z" fill="#000"/>
  </symbol>
</svg>
